<?xml version="1.0" encoding="UTF-8"?><!DOCTYPE svg PUBLIC '-//W3C//DTD SVG 20010904//EN' 'http://www.w3.org/TR/2001/REC-SVG-20010904/DTD/svg10.dtd'><svg width="700pt" height="700pt" version="1.0" viewBox="0 0 700 700" xmlns="http://www.w3.org/2000/svg"><style>g{fill: #000}@media(prefers-color-scheme:dark){g{fill:#fff}}</style><g transform="translate(0 700) scale(.1 -.1)"><path d="m3419 6905c-2-1-41-6-86-9-45-4-92-9-105-12-13-2-43-7-68-10-93-11-134-26-204-73-121-82-225-169-347-290-201-201-300-331-492-646-36-60-205-412-240-500-58-150-68-177-98-265-32-93-89-283-89-296 0-4 36 44 80 106 44 63 86 122 93 130 6 8 28 35 47 60s42 54 50 64c8 11 67 80 131 155 402 468 861 799 1358 977 99 35 353 108 406 117 17 3 41 8 55 11s36 8 50 10c14 3 34 7 45 9 37 8 90 16 140 22 28 4 61 8 75 11 14 2 50 6 80 9s73 8 95 10c118 13 277 18 513 17 145 0 262 2 259 4-13 13-207 101-334 152-293 117-607 197-893 227-68 7-515 16-521 10z"/><path d="m2375 6723c-685-259-1207-655-1588-1205-64-92-69-103-82-185-19-120-27-227-28-363 0-107 9-286 18-332 3-11 7-46 11-77 3-31 8-58 9-61 2-3 6-26 10-50 14-96 106-441 135-505 5-11 32-81 62-155 47-122 193-427 265-555 58-104 116-196 120-192 2 3-1 24-6 48-6 24-17 73-25 109-19 83-63 354-71 445-4 39-9 79-11 90-8 39-18 272-18 400 1 699 187 1262 613 1864 146 205 317 407 525 619 66 67 116 122 111 121-6-1-28-8-50-16z"/><path d="m4937 6264c-1-1-52-4-113-8-62-4-120-8-130-10-11-2-41-7-69-10-381-51-789-181-1242-396-73-35-133-67-133-72s8-7 18-4c9 3 41 8 71 11 30 4 61 8 70 10 17 3 127 16 176 20 187 16 262 20 460 20 208 0 336-6 465-21 48-5 261-40 295-48 161-37 217-52 310-82 381-124 738-330 1105-637 136-114 405-375 515-502 104-119 139-153 130-130-4 11-20 65-37 120-16 55-35 114-43 130-7 17-32 80-55 140-24 61-72 169-107 240-61 121-169 314-184 325-3 3-12 16-19 30-18 35-143 201-213 285-141 166-329 344-489 464-51 38-109 61-188 76-95 17-227 35-297 41-71 5-291 11-296 8z"/><path d="m380 4788c0-3-16-52-36-109-77-220-137-446-160-599-3-19-7-42-9-50-3-8-7-44-11-80-3-36-8-68-10-71-6-10-18-255-18-364 0-95 11-295 18-333 2-9 7-39 10-67 13-97 16-113 40-225 53-249 62-267 214-424 374-386 870-661 1497-831 232-63 545-128 545-113 0 4-4 8-8 8-5 0-60 28-123 63-560 310-1017 700-1316 1123-216 306-374 666-482 1099-16 66-34 147-40 180s-13 69-15 80c-8 42-35 212-40 250-22 169-26 209-31 275-6 97-16 184-21 189-2 2-4 2-4-1z"/><path d="m5734 4388c118-236 208-452 274-658 63-196 120-433 138-580 3-25 7-58 10-75 24-166 24-552 0-685-3-14-7-47-11-73-5-43-13-87-30-167-2-14-10-50-16-80-30-151-130-461-211-655-57-136-214-459-284-584l-47-83 60 41c155 109 429 358 549 497 27 31 61 70 77 87 231 265 458 677 571 1036 26 83 28 138 10 236-2 11-7 36-10 55-21 120-73 308-119 432-47 127-57 150-135 303-155 305-344 572-605 854-84 91-318 321-326 321-4 0 44-100 105-222z"/><path d="m5676 2623c-74-200-251-582-323-696-13-21-36-60-50-85-25-45-108-173-181-277-78-111-204-257-332-385-350-350-789-605-1365-793-193-63-535-153-643-170-69-10-9-26 268-72 47-7 114-17 150-20 36-4 74-9 85-12 36-8 468-10 555-3 335 30 614 96 930 222 116 46 129 54 183 111 251 266 480 695 601 1127 43 154 98 420 112 540 3 30 8 62 9 71 2 9 6 52 10 95s8 90 11 104c6 38 17 320 13 320-3 0-17-35-33-77z"/><path d="m536 1933c225-416 522-783 843-1039 13-11 28-24 35-30 69-64 329-230 494-316l116-60 165 1c91 0 177 3 191 5 14 3 52 7 85 10 33 4 71 8 85 11 14 2 41 7 60 9 95 14 261 56 405 102 333 108 713 305 1050 545 282 201 288 207 130 153-120-41-425-130-482-140-14-3-55-12-92-21-36-8-75-17-86-18-11-2-48-8-83-15-35-6-75-13-90-15-244-33-319-38-522-39-168-1-314 7-380 18-14 3-47 7-75 10-180 20-562 131-760 222-27 12-85 38-127 57-180 82-449 239-653 381-120 84-324 236-331 247-3 5-10 9-15 9-6 0 11-39 37-87z"/></g></svg>